<svg xmlns="http://www.w3.org/2000/svg" version="1.0" width="200.000000pt" height="200.000000pt" viewBox="0 0 200.000000 200.000000" preserveAspectRatio="xMidYMid meet">

<g transform="translate(0.000000,200.000000) scale(0.100000,-0.100000)" fill="#ffffff" stroke="none">
<path d="M883 1885 c-166 -45 -287 -174 -322 -343 -6 -29 -11 -111 -11 -181 l0 -128 -60 -6 c-105 -11 -183 -70 -209 -156 -7 -26 -11 -162 -11 -418 l0 -379 25 -51 c26 -51 72 -91 128 -112 19 -7 217 -11 580 -11 514 0 555 2 592 19 51 23 93 65 116 116 17 37 19 73 19 419 0 255 -4 391 -11 417 -27 89 -112 149 -212 149 l-57 0 0 135 c0 73 -5 158 -11 187 -26 125 -112 244 -218 302 -99 54 -231 69 -338 41z m245 -121 c62 -25 109 -63 146 -117 49 -72 66 -147 66 -294 l0 -123 -341 0 -341 0 4 148 c4 118 9 157 25 199 40 101 117 170 222 200 55 16 167 9 219 -13z m426 -664 c14 -5 35 -24 46 -42 19 -31 20 -51 20 -391 0 -306 -2 -364 -16 -392 -31 -66 -24 -65 -604 -65 -580 0 -573 -1 -604 65 -23 48 -24 731 -1 775 32 63 7 60 597 60 324 0 547 -4 562 -10z" fill="#ffffff"/>
<path d="M953 875 c-63 -27 -83 -119 -38 -173 23 -27 25 -38 25 -124 0 -108 13 -138 60 -138 47 0 60 30 60 138 0 86 2 97 25 124 46 55 25 147 -40 174 -42 17 -51 17 -92 -1z" fill="#ffffff"/>
</g>
</svg>